<svg width="164" height="96" viewBox="0 0 164 96" fill="none" xmlns="http://www.w3.org/2000/svg">
<path d="M103.632 88.3482C102.866 88.3482 102.222 88.0868 101.7 87.5642C101.177 87.0415 100.916 86.3882 100.916 85.6042C100.916 84.8015 101.177 84.1575 101.7 83.6722C102.222 83.1682 102.866 82.9162 103.632 82.9162C104.397 82.9162 105.041 83.1682 105.564 83.6722C106.086 84.1575 106.348 84.8015 106.348 85.6042C106.348 86.3882 106.086 87.0415 105.564 87.5642C105.041 88.0868 104.397 88.3482 103.632 88.3482Z" fill="#292228"/>
<path d="M123.564 73.0602V88.1242H119.392V86.3882C118.31 87.6948 116.742 88.3482 114.688 88.3482C113.27 88.3482 111.982 88.0308 110.824 87.3962C109.686 86.7615 108.79 85.8562 108.136 84.6802C107.483 83.5042 107.156 82.1415 107.156 80.5921C107.156 79.0428 107.483 77.6802 108.136 76.5042C108.79 75.3282 109.686 74.4228 110.824 73.7882C111.982 73.1535 113.27 72.8362 114.688 72.8362C116.611 72.8362 118.114 73.4428 119.196 74.6561V73.0602H123.564ZM115.444 84.7642C116.546 84.7642 117.46 84.3908 118.188 83.6442C118.916 82.8788 119.28 81.8615 119.28 80.5921C119.28 79.3228 118.916 78.3148 118.188 77.5682C117.46 76.8028 116.546 76.4202 115.444 76.4202C114.324 76.4202 113.4 76.8028 112.672 77.5682C111.944 78.3148 111.58 79.3228 111.58 80.5921C111.58 81.8615 111.944 82.8788 112.672 83.6442C113.4 84.3908 114.324 84.7642 115.444 84.7642Z" fill="#292228"/>
<path d="M135.673 72.8362C137.073 72.8362 138.342 73.1628 139.481 73.8162C140.638 74.4508 141.543 75.3562 142.197 76.5322C142.85 77.6895 143.177 79.0428 143.177 80.5921C143.177 82.1415 142.85 83.5042 142.197 84.6802C141.543 85.8375 140.638 86.7428 139.481 87.3962C138.342 88.0308 137.073 88.3482 135.673 88.3482C133.75 88.3482 132.238 87.7415 131.137 86.5282V93.5562H126.769V73.0602H130.941V74.7962C132.023 73.4895 133.601 72.8362 135.673 72.8362ZM134.917 84.7642C136.037 84.7642 136.951 84.3908 137.661 83.6442C138.389 82.8788 138.753 81.8615 138.753 80.5921C138.753 79.3228 138.389 78.3148 137.661 77.5682C136.951 76.8028 136.037 76.4202 134.917 76.4202C133.797 76.4202 132.873 76.8028 132.145 77.5682C131.435 78.3148 131.081 79.3228 131.081 80.5921C131.081 81.8615 131.435 82.8788 132.145 83.6442C132.873 84.3908 133.797 84.7642 134.917 84.7642Z" fill="#292228"/>
<path d="M154.165 72.8362C155.565 72.8362 156.834 73.1628 157.973 73.8162C159.13 74.4508 160.035 75.3562 160.689 76.5322C161.342 77.6895 161.669 79.0428 161.669 80.5921C161.669 82.1415 161.342 83.5042 160.689 84.6802C160.035 85.8375 159.13 86.7428 157.973 87.3962C156.834 88.0308 155.565 88.3482 154.165 88.3482C152.242 88.3482 150.73 87.7415 149.629 86.5282V93.5562H145.261V73.0602H149.433V74.7962C150.515 73.4895 152.093 72.8362 154.165 72.8362ZM153.409 84.7642C154.529 84.7642 155.443 84.3908 156.153 83.6442C156.881 82.8788 157.245 81.8615 157.245 80.5921C157.245 79.3228 156.881 78.3148 156.153 77.5682C155.443 76.8028 154.529 76.4202 153.409 76.4202C152.289 76.4202 151.365 76.8028 150.637 77.5682C149.927 78.3148 149.573 79.3228 149.573 80.5921C149.573 81.8615 149.927 82.8788 150.637 83.6442C151.365 84.3908 152.289 84.7642 153.409 84.7642Z" fill="#292228"/>
<path d="M40.2433 78.8754L36.0939 77.3891L25.1885 15.5413C23.2234 17.4344 20.3475 18.8934 16.9985 19.484C10.1571 20.6903 3.93177 17.8158 3.09384 13.0637C2.25592 8.31161 7.12268 3.48135 13.9641 2.27503C20.8054 1.06871 27.0307 3.94314 27.8687 8.69525L36.1658 55.7509C54.3532 46.7772 48.7895 30.2361 43.7342 23.0872C68.0371 45.498 54.5335 58.3983 45.5534 66.9772C42.0364 70.337 39.2133 73.034 39.627 75.3799L40.2433 78.8754Z" fill="#292228"/>
<path d="M74.1687 66.1241V31.6921H64.1847V66.1241H74.1687Z" fill="#292228"/>
<path d="M64.6967 25.2921C65.8487 26.3588 67.3421 26.8921 69.1767 26.8921C71.0114 26.8921 72.5047 26.3588 73.6567 25.2921C74.8087 24.1828 75.3847 22.7961 75.3847 21.1321C75.3847 19.5961 74.8087 18.3161 73.6567 17.2921C72.5047 16.2681 71.0114 15.7561 69.1767 15.7561C67.3421 15.7561 65.8487 16.2895 64.6967 17.3561C63.5447 18.4228 62.9687 19.7455 62.9687 21.3241C62.9687 22.9028 63.5447 24.2255 64.6967 25.2921Z" fill="#292228"/>
<path d="M95.8507 32.4601C93.8454 33.3135 92.2454 34.5721 91.0507 36.2361V31.6921H81.5147V66.1241H91.4987V49.8681C91.4987 46.6681 92.3094 44.2788 93.9307 42.7001C95.5521 41.0788 97.7921 40.2681 100.651 40.2681C101.035 40.2681 101.781 40.3108 102.891 40.3961V31.1801C100.245 31.1801 97.8987 31.6068 95.8507 32.4601Z" fill="#292228"/>
<path d="M116.891 31.6921V66.1241H106.907V31.6921H116.891Z" fill="#292228"/>
<path d="M111.899 26.8921C110.065 26.8921 108.571 26.3588 107.419 25.2921C106.267 24.2255 105.691 22.9028 105.691 21.3241C105.691 19.7455 106.267 18.4228 107.419 17.3561C108.571 16.2895 110.065 15.7561 111.899 15.7561C113.734 15.7561 115.227 16.2681 116.379 17.2921C117.531 18.3161 118.107 19.5961 118.107 21.1321C118.107 22.7961 117.531 24.1828 116.379 25.2921C115.227 26.3588 113.734 26.8921 111.899 26.8921Z" fill="#292228"/>
<path d="M134.221 57.3561L139.021 52.6201L149.901 66.1241H161.997L146.381 46.2841L160.717 31.6921H148.813L134.221 45.5161V18.6361H124.237V66.1241H134.221V57.3561Z" fill="#292228"/>
</svg>
